<svg width="870" height="390" viewBox="0 0 870 390" fill="none" xmlns="http://www.w3.org/2000/svg">
<mask id="mask0_1287_23181" style="mask-type:luminance" maskUnits="userSpaceOnUse" x="65" y="64" width="259" height="262">
<path d="M323.447 64H65.8582V326H323.447V64Z" fill="white"/>
</mask>
<g mask="url(#mask0_1287_23181)">
<path d="M209.293 94.6535C216.257 87.6406 216.257 76.2704 209.293 69.2575C202.329 62.2445 191.038 62.2445 184.073 69.2575C177.109 76.2704 177.109 87.6406 184.073 94.6535C191.038 101.667 202.329 101.667 209.293 94.6535Z" fill="#B69256"/>
<path d="M217.28 94.3025C213.913 102.421 205.95 108.117 196.677 108.117C193.509 108.117 190.506 107.449 187.769 106.246C174.166 100.751 166.718 84.2628 165.839 70.9323C165.656 68.0925 163.367 65.8874 160.547 65.8874C157.611 65.8874 155.272 68.2929 155.239 71.2497C155.023 96.0732 165.822 116.069 165.822 116.069C131.434 149.429 162.538 188.635 162.538 188.635C179.541 117.222 228.627 117.055 243.922 118.825L254.489 106.23C237.32 93.9516 217.28 94.3025 217.28 94.3025Z" fill="#B69256"/>
<path d="M113.882 145.687C118.809 137.101 115.889 126.126 107.363 121.165C98.8362 116.203 87.9374 119.143 83.0106 127.729C78.0837 136.316 81.0034 147.291 89.5299 152.252C98.0565 157.214 108.955 154.274 113.882 145.687Z" fill="#B69256"/>
<path d="M119.372 124.923C124.664 131.922 125.593 141.711 120.948 149.797C119.372 152.553 117.282 154.858 114.893 156.629C103.364 165.75 85.448 163.996 73.5539 158.099C71.0324 156.846 67.9801 157.731 66.57 160.187C65.1102 162.743 65.9894 166 68.5275 167.487C89.7776 180.082 112.355 180.667 112.355 180.667C123.851 227.34 173.119 219.823 173.119 219.823C120.201 169.291 144.603 126.393 153.777 113.948L148.22 98.4287C129.076 107.249 119.355 124.923 119.355 124.923H119.372Z" fill="#B69256"/>
<path d="M111.858 240.787C106.931 232.202 96.0325 229.261 87.5059 234.223C78.9793 239.185 76.0597 250.16 80.9865 258.746C85.9134 267.333 96.8121 270.273 105.339 265.311C113.865 260.349 116.785 249.374 111.858 240.787Z" fill="#B69256"/>
<path d="M96.7289 225.604C105.388 224.484 114.263 228.576 118.908 236.663C120.484 239.418 121.429 242.391 121.761 245.365C123.835 259.965 113.384 274.716 102.369 282.15C100.03 283.736 99.267 286.827 100.677 289.283C102.137 291.839 105.388 292.691 107.926 291.238C129.392 279.009 141.17 259.598 141.17 259.598C187.054 272.912 205.219 226.172 205.219 226.172C135.298 247.053 110.614 204.338 104.492 190.106L88.3682 187.182C86.394 208.297 96.7122 225.587 96.7122 225.587L96.7289 225.604Z" fill="#B69256"/>
<path d="M201.48 323.624C210.03 318.702 213 307.732 208.113 299.122C203.226 290.511 192.333 287.52 183.782 292.441C175.231 297.363 172.261 308.333 177.148 316.944C182.035 325.555 192.929 328.544 201.48 323.624Z" fill="#B69256"/>
<path d="M172.029 295.696C175.396 287.577 183.359 281.883 192.632 281.883C195.8 281.883 198.803 282.55 201.54 283.754C215.142 289.249 222.591 305.736 223.47 319.067C223.653 321.907 225.942 324.111 228.763 324.111C231.698 324.111 234.037 321.707 234.069 318.749C234.286 293.927 223.487 273.931 223.487 273.931C257.875 240.57 226.772 201.364 226.772 201.364C209.768 272.778 160.682 272.944 145.387 271.174L134.82 283.77C151.989 296.048 172.029 295.696 172.029 295.696Z" fill="#B69256"/>
<path d="M275.424 244.312C270.497 252.899 273.417 263.874 281.943 268.836C290.47 273.798 301.369 270.856 306.296 262.271C311.223 253.685 308.303 242.71 299.776 237.748C291.25 232.786 280.35 235.726 275.424 244.312Z" fill="#B69256"/>
<path d="M269.933 265.094C264.642 258.094 263.713 248.305 268.358 240.22C269.933 237.463 272.023 235.158 274.412 233.387C285.942 224.267 303.858 226.02 315.752 231.918C318.272 233.17 321.325 232.286 322.735 229.83C324.195 227.274 323.316 224.016 320.778 222.529C299.528 209.934 276.95 209.349 276.95 209.349C265.454 162.676 216.186 170.193 216.186 170.193C269.104 220.725 244.701 263.623 235.528 276.069L241.086 291.588C260.229 282.767 269.951 265.094 269.951 265.094H269.933Z" fill="#B69256"/>
<path d="M277.449 149.212C282.376 157.798 293.275 160.738 301.801 155.777C310.328 150.816 313.248 139.84 308.321 131.254C303.394 122.668 292.495 119.728 283.969 124.689C275.442 129.65 272.522 140.626 277.449 149.212Z" fill="#B69256"/>
<path d="M292.559 164.397C283.901 165.516 275.024 161.423 270.38 153.338C268.805 150.582 267.858 147.608 267.528 144.635C265.453 130.035 275.905 115.284 286.92 107.851C289.259 106.264 290.021 103.173 288.611 100.718C287.151 98.1617 283.901 97.3098 281.363 98.7631C259.896 110.991 248.118 130.402 248.118 130.402C202.234 117.088 184.069 163.829 184.069 163.829C253.991 142.948 278.674 185.662 284.796 199.895L300.92 202.818C302.893 181.703 292.576 164.414 292.576 164.414L292.559 164.397Z" fill="#B69256"/>
</g>
<path d="M405.068 193.104H454.61V213.919H405.068V193.104ZM382 233.5L415.328 140.098C417.809 133.145 424.416 128.5 431.825 128.5C439.336 128.5 446.01 133.271 448.413 140.357L480 233.5H472.388C463.272 233.5 455.201 227.633 452.422 218.987L428.291 143.919H435.722L410.001 218.333C406.864 227.408 398.289 233.5 388.652 233.5H382Z" fill="#B69256"/>
<path d="M610.346 236.5C602.559 236.5 595.694 234.816 589.751 231.447C583.808 227.974 579.197 223.184 575.918 217.079C572.639 210.974 571 203.974 571 196.079C571 188.079 572.639 181.026 575.918 174.921C579.197 168.816 583.808 164.079 589.751 160.711C595.694 157.237 602.559 155.5 610.346 155.5C618.236 155.5 625.152 157.237 631.095 160.711C637.038 164.079 641.649 168.816 644.928 174.921C648.309 181.026 650 188.079 650 196.079C650 203.974 648.309 210.974 644.928 217.079C641.649 223.184 637.038 227.974 631.095 231.447C625.152 234.816 618.236 236.5 610.346 236.5ZM610.346 214.079C615.367 214.079 619.414 212.447 622.488 209.184C625.665 205.816 627.253 201.447 627.253 196.079C627.253 190.605 625.665 186.184 622.488 182.816C619.414 179.447 615.367 177.763 610.346 177.763C605.53 177.763 601.534 179.447 598.358 182.816C595.284 186.079 593.747 190.447 593.747 195.921C593.747 201.395 595.284 205.816 598.358 209.184C601.534 212.447 605.53 214.079 610.346 214.079Z" fill="#B69256"/>
<path d="M766.346 236.5C758.559 236.5 751.694 234.816 745.751 231.447C739.808 227.974 735.197 223.184 731.918 217.079C728.639 210.974 727 203.974 727 196.079C727 188.079 728.639 181.026 731.918 174.921C735.197 168.816 739.808 164.079 745.751 160.711C751.694 157.237 758.559 155.5 766.346 155.5C774.236 155.5 781.152 157.237 787.095 160.711C793.038 164.079 797.649 168.816 800.928 174.921C804.309 181.026 806 188.079 806 196.079C806 203.974 804.309 210.974 800.928 217.079C797.649 223.184 793.038 227.974 787.095 231.447C781.152 234.816 774.236 236.5 766.346 236.5ZM766.346 214.079C771.367 214.079 775.414 212.447 778.488 209.184C781.665 205.816 783.253 201.447 783.253 196.079C783.253 190.605 781.665 186.184 778.488 182.816C775.414 179.447 771.367 177.763 766.346 177.763C761.53 177.763 757.534 179.447 754.358 182.816C751.284 186.079 749.747 190.447 749.747 195.921C749.747 201.395 751.284 205.816 754.358 209.184C757.534 212.447 761.53 214.079 766.346 214.079Z" fill="#B69256"/>
<path d="M676.585 234.5C672.879 234.5 669.473 233.713 666.368 232.138C663.263 230.564 660.758 228.15 658.855 224.896C656.952 221.538 656 217.077 656 211.515V126.5H668.556C674.078 126.5 678.556 130.977 678.556 136.5V203.328C678.556 207.211 678.439 209.73 679.741 210.885C681.143 211.934 682.896 212.459 685 212.459V233.713C683.998 233.923 682.646 234.08 680.943 234.185C679.34 234.395 677.888 234.5 676.585 234.5Z" fill="#B69256"/>
<path d="M712.585 234.5C708.879 234.5 705.473 233.713 702.368 232.138C699.263 230.564 696.758 228.15 694.855 224.897C692.952 221.538 692 217.077 692 211.515V126.5L704.556 126.5C710.078 126.5 714.556 130.977 714.556 136.5V203.328C714.556 207.211 714.439 209.73 715.741 210.885C717.143 211.934 718.896 212.459 721 212.459V233.713C719.998 233.923 718.646 234.08 716.943 234.185C715.34 234.395 713.888 234.5 712.585 234.5Z" fill="#B69256"/>
<path fill-rule="evenodd" clip-rule="evenodd" d="M511.373 231.147C516.341 234.169 522.188 235.679 528.915 235.679C535.746 235.679 541.8 234.012 547.079 230.678C552.357 227.24 556.497 222.499 559.498 216.455C562.499 210.412 564 203.483 564 195.668C564 187.749 562.499 180.768 559.498 174.724C556.6 168.681 552.512 163.992 547.234 160.658C542.059 157.219 536.005 155.5 529.071 155.5C522.447 155.5 516.651 157.115 511.683 160.345C510.652 161.016 509.667 161.747 508.73 162.539C506.993 158.49 502.991 155.656 498.332 155.656C492.63 155.656 487.912 159.902 487.127 165.425H487V263.5H493.494C502.425 263.5 509.665 256.211 509.665 247.219V229.958C510.219 230.375 510.788 230.771 511.373 231.147ZM536.212 209.109C533.21 212.548 529.381 214.267 524.724 214.267C520.17 214.267 516.341 212.548 513.236 209.109C510.131 205.567 508.579 201.034 508.579 195.512C508.579 190.093 510.131 185.665 513.236 182.226C516.341 178.684 520.17 176.912 524.724 176.912C529.381 176.912 533.21 178.684 536.212 182.226C539.317 185.665 540.869 190.145 540.869 195.668C540.869 201.086 539.317 205.567 536.212 209.109Z" fill="#B69256"/>
</svg>
